HIERARCHY
ROOT Hips
{
 OFFSET 0.000000 0.000000 0.000000
 CHANNELS 6 Xposition Yposition Zposition Yrotation Xrotation Zrotation
 JOINT Chest
 {
  OFFSET 0.000000 14.374500 -0.011500
  CHANNELS 3 Yrotation Xrotation Zrotation
  JOINT Chest2
  {
   OFFSET 0.000000 9.203400 0.023400
   CHANNELS 3 Yrotation Xrotation Zrotation
   JOINT Chest3
   {
    OFFSET 0.000000 9.162700 0.000000
    CHANNELS 3 Yrotation Xrotation Zrotation
    JOINT Chest4
    {
     OFFSET 0.000000 9.153300 0.000000
     CHANNELS 3 Yrotation Xrotation Zrotation
     JOINT Neck
     {
      OFFSET 0.000000 13.353600 0.000000
      CHANNELS 3 Yrotation Xrotation Zrotation
      JOINT Head
      {
       OFFSET 0.000000 8.573800 0.049400
       CHANNELS 3 Yrotation Xrotation Zrotation
       End Site
       {
        OFFSET 0.000000 16.219200 0.026100
       }
      }
     }
     JOINT RightCollar
     {
      OFFSET -2.497100 8.876100 0.000000
      CHANNELS 3 Yrotation Xrotation Zrotation
      JOINT RightShoulder
      {
       OFFSET -12.289200 0.000000 0.000000
       CHANNELS 3 Yrotation Xrotation Zrotation
       JOINT RightElbow
       {
        OFFSET 0.000000 -28.194900 0.000000
        CHANNELS 3 Yrotation Xrotation Zrotation
        JOINT RightWrist
        {
         OFFSET 0.000000 -23.009700 0.007900
         CHANNELS 3 Yrotation Xrotation Zrotation
         End Site
         {
          OFFSET 0.000000 -17.151500 0.000000
         }
        }
       }
      }
     }
     JOINT LeftCollar
     {
      OFFSET 2.497100 8.876100 0.000000
      CHANNELS 3 Yrotation Xrotation Zrotation
      JOINT LeftShoulder
      {
       OFFSET 12.289200 0.000000 0.000000
       CHANNELS 3 Yrotation Xrotation Zrotation
       JOINT LeftElbow
       {
        OFFSET 0.000000 -28.194900 0.000000
        CHANNELS 3 Yrotation Xrotation Zrotation
        JOINT LeftWrist
        {
         OFFSET 0.000000 -23.009700 0.007900
         CHANNELS 3 Yrotation Xrotation Zrotation
         End Site
         {
          OFFSET 0.000000 -17.151500 0.000000
         }
        }
       }
      }
     }
    }
   }
  }
 }
 JOINT RightHip
 {
  OFFSET -11.777600 0.056700 0.005700
  CHANNELS 3 Yrotation Xrotation Zrotation
  JOINT RightKnee
  {
   OFFSET 0.000000 -39.966000 -0.004200
   CHANNELS 3 Yrotation Xrotation Zrotation
   JOINT RightAnkle
   {
    OFFSET 0.000000 -41.981900 0.027400
    CHANNELS 3 Yrotation Xrotation Zrotation
    JOINT RightToe
    {
     OFFSET 0.000000 -9.910600 16.950100
     CHANNELS 3 Yrotation Xrotation Zrotation
     End Site
     {
      OFFSET 0.000000 -1.461000 6.191600
     }
    }
   }
  }
 }
 JOINT LeftHip
 {
  OFFSET 11.777600 0.056700 0.005700
  CHANNELS 3 Yrotation Xrotation Zrotation
  JOINT LeftKnee
  {
   OFFSET 0.000000 -39.966000 -0.004200
   CHANNELS 3 Yrotation Xrotation Zrotation
   JOINT LeftAnkle
   {
    OFFSET 0.000000 -41.981900 0.027400
    CHANNELS 3 Yrotation Xrotation Zrotation
    JOINT LeftToe
    {
     OFFSET 0.000000 -9.910600 16.950100
     CHANNELS 3 Yrotation Xrotation Zrotation
     End Site
     {
      OFFSET 0.000000 -1.461000 6.191600
     }
    }
   }
  }
 }
}
MOTION
Frames: 12
Frame Time: 0.008333
0.000000 91.618700 0.000000 0.000000 -5.767877 0.000000 0.000000 11.653817 0.000000 0.000000 -5.885947 0.000000 0.000000 -0.000000 0.000000 0.000000 -0.000000 0.000000 0.000000 12.528835 0.000000 0.000000 0.711642 0.000000 0.000000 -0.000000 0.000000 0.000000 0.000000 -90.000000 0.000000 -2.309062 0.000000 0.000000 2.309062 0.000000 0.000000 -0.000000 0.000000 0.000000 -0.000000 90.000000 0.000000 -2.309062 0.000000 0.000000 2.309062 0.000000 0.000000 8.520406 0.000000 0.000000 1.905762 0.000000 -0.000000 -4.658285 0.000000 0.000000 -0.000000 0.000000 0.000000 8.520406 0.000000 0.000000 1.905762 0.000000 -0.000000 -4.658285 0.000000 0.000000 -0.000000 0.000000
-2.169384 152.728018 86.961991 174.551301 -48.582085 -2.620513 5.076291 28.607289 3.718838 0.730231 5.306275 0.538844 1.171731 8.322304 0.878554 3.695460 22.914754 2.965231 4.689961 8.172143 -0.235478 5.233846 -17.088525 -1.395932 2.410792 -4.973368 -1.777743 3.413867 -10.432965 -2.315749 29.487608 -68.649720 -22.006614 25.812789 30.424569 -6.192640 -11.566576 -8.416921 1.860209 -2.829100 -13.584284 -1.632925 -13.503381 -61.490463 2.071675 -16.570081 3.894003 12.083466 7.531425 -28.853798 0.321483 -76.760874 86.614977 -79.233901 4.092286 -25.865696 8.116921 0.078076 -0.248455 0.049071 -2.423821 -29.738602 -2.673312 145.206756 71.897942 156.705058 -4.634898 10.977107 -7.856611 0.234828 -9.500303 -1.291300
-3.674748 145.673639 89.048006 174.723400 -48.520322 -2.852578 4.987546 28.506762 3.829010 0.724739 5.293406 0.539891 1.163317 8.303558 0.880037 3.676730 22.895318 2.970263 4.451884 8.251154 -0.356468 4.989623 -17.000957 -1.468185 2.425065 -4.921295 -1.780117 3.147046 -10.414340 -2.023175 28.063443 -68.620445 -21.032416 25.473570 29.923329 -5.839639 -11.531209 -8.344852 1.827486 -2.616580 -13.557074 -1.851246 -10.570866 -61.260353 -0.135423 -16.016326 3.534148 11.653664 7.363870 -28.951988 0.430152 -77.447804 86.622303 -79.922249 4.116736 -25.956149 8.128278 0.045225 -0.172754 0.026441 -2.612981 -29.771620 -2.536866 145.190803 71.925374 156.679218 -4.573956 11.000201 -7.807966 0.070965 0.035431 0.041476
-4.915151 139.864898 90.765051 174.851220 -48.473185 -3.031028 4.911839 28.424827 3.916486 0.718741 5.279731 0.540930 1.164636 8.300143 0.876405 3.647986 22.857601 2.981236 4.203045 8.337483 -0.490028 4.737224 -16.905649 -1.551196 2.460439 -4.839758 -1.809188 2.876698 -10.442992 -1.732562 26.415606 -68.582049 -19.857316 25.109767 29.464887 -5.476403 -11.482342 -8.286101 1.823193 -2.365603 -13.529983 -2.076225 -7.494653 -60.942893 -2.543361 -15.425219 3.256052 11.316594 7.237091 -29.029261 0.516348 -78.004037 86.628797 -80.479951 4.139668 -26.029696 8.138399 0.021909 -0.107279 0.012807 -2.761743 -29.795922 -2.424395 145.219094 71.951670 156.699610 -4.524831 11.028068 -7.782099 0.030523 0.029555 0.017845
-5.813405 135.671291 92.003199 174.941630 -48.447557 -3.149332 4.839988 28.369203 3.969445 0.730945 5.287945 0.533332 1.136642 8.256111 0.888027 3.623402 22.836048 2.986119 3.943519 8.429918 -0.637753 4.477301 -16.803913 -1.646684 2.464993 -4.795629 -1.815215 2.678935 -10.450112 -1.499902 24.519745 -68.529881 -18.460222 24.728784 29.074257 -5.101303 -11.418055 -8.277020 1.889119 -2.044655 -13.457256 -2.356709 -4.329916 -60.527455 -5.123228 -14.825339 3.061990 11.093882 7.166416 -29.075557 0.556833 -78.520188 86.634434 -80.976614 4.146497 -26.084279 8.142693 0.008829 -0.055989 0.005161 -2.885998 -29.805053 -2.338730 145.264204 71.974125 156.720676 -4.501998 11.054332 -7.772717 0.011223 0.016380 0.006562
-6.380768 133.022391 92.785370 174.999231 -48.429108 -3.225639 4.776993 28.322210 4.004075 0.745912 5.296205 0.523826 1.093940 8.194651 0.907631 3.604002 22.831165 2.985768 3.673377 8.528963 -0.803664 4.211167 -16.695304 -1.759135 2.431867 -4.796299 -1.804179 2.557506 -10.422697 -1.325248 22.384176 -68.458671 -16.839008 24.325322 28.757762 -4.713782 -11.357560 -8.279816 1.919087 -1.651369 -13.355884 -2.583018 -1.146055 -60.017193 -7.818322 -14.232905 2.957186 10.990661 7.124448 -29.106554 0.581654 -78.842659 86.641585 -81.282942 4.135882 -26.119214 8.147078 -0.001221 -0.021022 -0.000714 -2.977098 -29.816828 -2.274322 145.330306 71.988205 156.767073 -4.490734 11.073534 -7.775977 0.004471 0.005711 0.002615
-6.694421 131.565426 93.215381 175.008904 -48.419433 -3.246156 4.733952 28.283940 4.019394 0.738190 5.281128 0.521099 1.083454 8.175018 0.914896 3.577448 22.809928 2.993614 3.391526 8.633473 -0.991940 3.938837 -16.581259 -1.892758 2.419038 -4.796847 -1.817245 2.431636 -10.402703 -1.171850 20.064632 -68.361345 -15.033386 23.886979 28.514394 -4.312251 -11.315330 -8.294175 1.922324 -1.183695 -13.218611 -2.759954 1.988395 -59.420004 -10.550898 -13.644898 2.933611 10.984472 7.124481 -29.121957 0.583672 -78.998032 86.649328 -81.425146 4.140555 -26.130564 8.143540 -0.000722 -0.011819 -0.000422 -3.025632 -29.828807 -2.234716 145.389764 71.992413 156.803263 -4.486650 11.091497 -7.778674 0.003416 0.002987 0.001997
-6.843205 130.871918 93.420200 175.007771 -48.416831 -3.255465 4.699954 28.253491 4.036177 0.690145 5.223735 0.547705 1.109927 8.202088 0.891377 3.563744 22.809188 2.990868 3.092020 8.719628 -1.186807 3.660567 -16.465776 -2.048515 2.402369 -4.827554 -1.825693 2.303462 -10.378799 -1.042260 17.628362 -68.243162 -13.096114 23.417346 28.342737 -3.895837 -11.306126 -8.342399 1.942091 -0.668796 -13.039881 -2.901450 5.022750 -58.733471 -13.240990 -13.053806 2.963988 11.041158 7.126898 -29.128539 0.586827 -79.101637 86.654375 -81.525630 4.161735 -26.134945 8.137499 0.003141 -0.007072 0.001836 -3.061396 -29.835690 -2.203846 145.433130 71.992699 156.826230 -4.486391 11.115555 -7.775033 0.002569 0.004864 0.001502
-6.904347 130.587203 93.505395 175.001898 -48.411912 -3.256128 4.672154 28.222670 4.051623 0.683762 5.212725 0.550750 1.117080 8.212230 0.877431 3.532776 22.764483 3.024544 2.789962 8.824268 -1.419978 3.380125 -16.352626 -2.225805 2.382657 -4.863469 -1.849936 2.183825 -10.334912 -0.937202 15.138259 -68.105077 -11.076188 22.941844 28.219499 -3.468458 -11.303710 -8.386448 1.944499 -0.152091 -12.831824 -3.006216 7.902494 -57.960341 -15.804591 -12.442135 3.040682 11.121102 7.135923 -29.136354 0.588671 -79.204130 86.664175 -81.625111 4.142608 -26.137425 8.141694 0.001658 -0.004180 0.000969 -3.083468 -29.847634 -2.190907 145.452963 71.990822 156.844526 -4.492589 11.134070 -7.793454 0.006224 -0.000354 0.003639
-6.925886 130.487514 93.536525 175.000759 -48.409533 -3.257826 4.651396 28.201660 4.064054 0.685957 5.214352 0.545411 1.111487 8.203596 0.879430 3.489510 22.707944 3.072830 2.490536 8.946432 -1.690914 3.103215 -16.242596 -2.425026 2.367238 -4.901770 -1.891619 2.062122 -10.275979 -0.850567 12.642988 -67.927263 -9.009919 22.489775 28.121785 -3.042400 -11.295383 -8.419795 1.932717 0.312756 -12.607931 -3.071687 10.582443 -57.115371 -18.166344 -11.781788 3.166174 11.161948 7.180980 -29.142592 0.568965 -79.266554 86.668935 -81.650084 4.123706 -26.128990 8.147109 -0.000527 -0.003653 -0.000308 -3.103608 -29.858738 -2.186987 145.459281 71.986293 156.845816 -4.492350 11.158606 -7.798433 0.006037 -0.001120 0.003530
-6.931990 130.457902 93.547546 174.998187 -48.410879 -3.259037 4.647614 28.196535 4.071256 0.650725 5.176515 0.575950 1.113042 8.199310 0.876449 3.457238 22.699291 3.085784 2.184739 9.048838 -1.965262 2.832154 -16.132923 -2.646108 2.344467 -4.974542 -1.920518 1.937289 -10.209547 -0.780840 10.167311 -67.691614 -6.920579 22.078135 28.046449 -2.619945 -11.294779 -8.469650 1.944093 0.680667 -12.374345 -3.094840 13.096581 -56.205030 -20.323944 -11.082973 3.321307 11.097980 7.210604 -29.146012 0.555854 -79.299568 86.674114 -81.659727 4.111740 -26.117647 8.152142 -0.003189 -0.003770 -0.001865 -3.127365 -29.866243 -2.184492 145.462458 71.980840 156.840862 -4.494199 11.190976 -7.790144 0.009051 0.002299 0.005292
-6.933933 130.450721 93.552090 174.997491 -48.418543 -3.258449 4.611272 28.179456 4.079661 0.636107 5.157905 0.587709 1.108269 8.201088 0.872219 3.456621 22.717370 3.070878 1.861562 9.119704 -2.222545 2.563909 -16.021538 -2.886263 2.300163 -5.085556 -1.915838 1.814676 -10.139736 -0.728256 7.748066 -67.399435 -4.846941 21.707675 27.981359 -2.190333 -11.323961 -8.543551 1.994859 0.935371 -12.132442 -3.074588 15.527071 -55.225182 -22.348720 -10.408681 3.482580 10.919845 7.234659 -29.142140 0.541686 -79.321917 86.677449 -81.664916 4.112297 -26.108654 8.154729 -0.003736 -0.004190 -0.002184 -3.164372 -29.864593 -2.189328 145.447827 71.967491 156.798701 -4.482316 11.203124 -7.784358 0.001411 0.003336 0.000825
